#!OML:ASF H:\Terrain\Patient Classification 1\Walking\steve\steve.ASF
:FULLY-SPECIFIED
:DEGREES


197
root 8.11281 16.4539 5.92748 7.40686 1.42557 -2.7703
lowerback 2.4657 1.80676 4.1458
upperback -2.60744 2.66663 1.92235
thorax -3.97958 1.23638 -0.490567
lowerneck -10.6457 -1.64132 -2.45927
upperneck 13.72 -2.14573 2.18963
head 5.95445 -1.00031 0.918795
rclavicle -9.81499e-015 -1.70955e-014
rhumerus -38.4057 -24.8117 -74.0472
rradius 24.9919
rwrist 8.89342
rhand -22.3507 -37.6868
rfingers 7.12502
rthumb 4.07009 -67.6277
lclavicle -9.81499e-015 -1.70955e-014
lhumerus -35.4977 -4.07052 92.0209
lradius 30.6454
lwrist 10.9082
lhand -26.2036 -18.3429
lfingers 7.12502
lthumb 0.349133 11.6366
rfemur -23.5942 1.53815 28.5581
rtibia 34.6552
rfoot -14.9173 11.156
rtoes 11.8655
lfemur -25.6868 4.87777 -17.081
ltibia 70.2231
lfoot -5.99547 3.35514
ltoes -12.4723
198
root 8.11029 16.4526 6.16553 7.40703 1.30802 -2.91017
lowerback 2.59227 1.94889 4.17509
upperback -2.61227 2.86299 1.8545
thorax -4.04425 1.33073 -0.592298
lowerneck -10.6113 -1.68721 -2.56928
upperneck 13.8229 -2.25728 2.61301
head 5.9897 -1.0276 1.06171
rclavicle 7.65321e-015 -6.75868e-015
rhumerus -36.6522 -21.8792 -76.677
rradius 27.4963
rwrist 4.82621
rhand -22.6184 -36.4787
rfingers 7.12502
rthumb 3.81159 -66.4243
lclavicle 7.65321e-015 -6.75868e-015
lhumerus -36.2205 -3.72602 91.8728
lradius 28.1307
lwrist 9.8656
lhand -26.8024 -19.1391
lfingers 7.12502
lthumb -0.229237 10.8405
rfemur -22.5382 1.50818 28.7969
rtibia 34.3121
rfoot -15.5912 11.5401
rtoes 11.1463
lfemur -27.522 4.95487 -17.14
ltibia 69.5935
lfoot -7.10648 3.07744
ltoes -11.7729
199
root 8.10643 16.4384 6.40149 7.61458 1.14623 -3.8939
lowerback 2.50705 2.14479 5.00738
upperback -2.68708 3.16587 2.0277
thorax -4.03149 1.45864 -0.889776
lowerneck -10.4997 -1.70939 -2.61019
upperneck 13.9236 -2.31088 2.78181
head 6.00617 -1.0432 1.11818
rclavicle 1.03865e-014 1.31198e-014
rhumerus -35.1091 -18.9646 -78.877
rradius 30.0142
rwrist 1.18207
rhand -23.361 -37.6025
rfingers 7.12502
rthumb 3.09448 -67.5598
lclavicle 1.03865e-014 1.31198e-014
lhumerus -36.8939 -2.27502 91.103
lradius 25.6919
lwrist 7.14999
lhand -26.181 -18.6037
lfingers 7.12502
lthumb 0.370913 11.3757
rfemur -21.7608 1.69965 29.9706
rtibia 34.0965
rfoot -16.7833 11.4937
rtoes 7.4845
lfemur -29.7935 5.35431 -16.2452
ltibia 68.8647
lfoot -8.09935 2.95836
ltoes -14.0951
200
root 8.10682 16.4243 6.65255 7.75847 1.00631 -4.52298
lowerback 2.43224 2.31287 5.58466
upperback -2.79327 3.41685 2.06519
thorax -4.05964 1.56437 -1.18243
lowerneck -10.466 -1.84022 -2.46547
upperneck 14.2168 -2.48878 2.58526
head 6.09378 -1.13611 1.01741
rclavicle 4.94477e-015 2.8625e-014
rhumerus -33.7497 -16.7667 -80.4435
rradius 32.0972
rwrist -1.30456
rhand -23.4531 -37.8965
rfingers 7.12502
rthumb 3.00548 -67.8551
lclavicle 4.94477e-015 2.8625e-014
lhumerus -37.8208 -0.248378 89.8784
lradius 23.2249
lwrist 3.5348
lhand -26.0801 -19.1524
lfingers 7.12502
lthumb 0.468427 10.8268
rfemur -20.8342 1.5341 30.7554
rtibia 33.9892
rfoot -17.7748 11.8108
rtoes 5.46532
lfemur -31.7094 5.37621 -15.7361
ltibia 67.7107
lfoot -9.58331 2.78303
ltoes -15.4955
201
root 8.11054 16.4227 6.91791 7.74084 0.813908 -4.33337
lowerback 2.45238 2.47396 5.38395
upperback -2.84582 3.62084 1.8933
thorax -4.11362 1.66702 -1.26121
lowerneck -10.3141 -2.0091 -2.50437
upperneck 14.2647 -2.73435 2.70149
head 6.0915 -1.24915 1.04116
rclavicle 2.02015e-014 -8.74653e-015
rhumerus -32.6516 -15.0648 -81.483
rradius 34.2499
rwrist -3.09251
rhand -22.3658 -37.0238
rfingers 7.12502
rthumb 4.05549 -66.965
lclavicle 2.02015e-014 -8.74653e-015
lhumerus -38.8055 1.67813 88.5114
lradius 20.8548
lwrist 0.402554
lhand -25.5355 -18.9074
lfingers 7.12502
lthumb 0.994351 11.07
rfemur -19.7101 0.837249 30.6543
rtibia 33.8813
rfoot -18.6494 12.0951
rtoes 2.96726
lfemur -32.9601 5.16519 -16.1826
ltibia 66.0739
lfoot -11.468 2.61265
ltoes -16.7477
202
root 8.11896 16.427 7.18713 7.78544 0.643611 -3.86092
lowerback 2.30923 2.60279 4.97915
upperback -2.82178 3.75498 1.66005
thorax -4.00687 1.7456 -1.27633
lowerneck -10.0149 -2.06836 -2.77422
upperneck 13.9045 -2.83801 3.14633
head 5.93948 -1.28389 1.22046
rclavicle -6.16232e-015 -2.8625e-014
rhumerus -31.5566 -13.3936 -82.3446
rradius 36.6206
rwrist -4.51312
rhand -21.7331 -38.1519
rfingers 7.12502
rthumb 4.66647 -68.0805
lclavicle -6.16232e-015 -2.8625e-014
lhumerus -39.6734 3.87329 86.7603
lradius 18.7175
lwrist -3.00103
lhand -24.2439 -17.58
lfingers 7.12502
lthumb 2.24184 12.388
rfemur -18.7003 -0.266326 30.1754
rtibia 33.7585
rfoot -19.1151 12.5492
rtoes 1.42788
lfemur -34.051 4.98129 -17.0279
ltibia 64.0229
lfoot -12.8227 2.97887
ltoes -17.3777
